<svg xmlns="http://www.w3.org/2000/svg" viewBox="0 0 132.16 8.68">
  <defs>
    <style>.cls-1{fill:#fff;}</style>
  </defs>
  <title>Asset 2</title>
  <g id="Layer_2" data-name="Layer 2">
    <g id="Layer_1-2" data-name="Layer 1">
      <path class="cls-1"
            d="M1,1.8H4.74C6.82,1.8,7.5,3,7.5,4.36a2.46,2.46,0,0,1-1.73,2.4L7.45,10.2H5.83L4.21,6.91H2.46V10.2H1ZM4.76,5.55A1.11,1.11,0,0,0,6,4.36,1.11,1.11,0,0,0,4.76,3.17H2.46V5.55Z"
            transform="translate(-1.02 -1.66)"/>
      <path class="cls-1"
            d="M9.24,1.8h5.47V3.16h-4v2h2.48V6.54H10.68v2.3H15V10.2H9.24Z"
            transform="translate(-1.02 -1.66)"/>
      <path class="cls-1"
            d="M19.19,1.8c2.93,0,4,2.12,4,4.2,0,1.92-1,4.2-4.09,4.2H16.6V1.8ZM21.74,6c0-1.41-.67-2.84-2.27-2.84H18V8.84h1.31C21.13,8.84,21.74,7.32,21.74,6Z"
            transform="translate(-1.02 -1.66)"/>
      <path class="cls-1"
            d="M33,6.55H29.35V10.2H27.91V1.8h1.44V5.2H33V1.8h1.43v8.4H33Z"
            transform="translate(-1.02 -1.66)"/>
      <path class="cls-1"
            d="M41.24,8.36H37.92l-.66,1.84H35.74l3.13-8.4h1.42l3.12,8.4H41.9ZM39.86,4.55c-.09-.24-.21-.6-.28-.85-.07.25-.19.61-.27.85l-.94,2.52h2.41Z"
            transform="translate(-1.02 -1.66)"/>
      <path class="cls-1" d="M47,10.2H45.59v-7H43.2V1.8h6.21V3.18H47Z"
            transform="translate(-1.02 -1.66)"/>
      <path class="cls-1"
            d="M53.53,6c0-2.11,1-4.34,3.48-4.34a2.78,2.78,0,0,1,2.71,1.51l-.94.48a1.93,1.93,0,0,0-1.77-1c-1.8,0-2.4,1.84-2.4,3.37s.72,3.36,2.4,3.36a2,2,0,0,0,1.82-1.07l1,.36A2.86,2.86,0,0,1,57,10.34C54.47,10.34,53.53,8.14,53.53,6Z"
            transform="translate(-1.02 -1.66)"/>
      <path class="cls-1" d="M61.65,1.8H62.7V9.19h4.12v1H61.65Z"
            transform="translate(-1.02 -1.66)"/>
      <path class="cls-1"
            d="M67.82,6c0-2.07.93-4.34,3.56-4.34S75,3.93,75,6s-.92,4.34-3.58,4.34S67.82,8.08,67.82,6Zm6.05,0c0-1.64-.64-3.37-2.49-3.37S68.9,4.48,68.9,6s.65,3.36,2.48,3.36S73.87,7.51,73.87,6Z"
            transform="translate(-1.02 -1.66)"/>
      <path class="cls-1"
            d="M76.88,7.05V1.8h1.05V7.05c0,1.84.88,2.31,2,2.31s2-.47,2-2.31V1.8h1V7.05c0,2.41-1.23,3.29-3,3.29S76.88,9.47,76.88,7.05Z"
            transform="translate(-1.02 -1.66)"/>
      <path class="cls-1"
            d="M87.5,1.8c2.88,0,3.9,2.13,3.9,4.2s-.9,4.2-4,4.2H85.21V1.8ZM90.32,6c0-1.63-.76-3.24-2.6-3.24H86.25V9.23h1.34C89.67,9.23,90.32,7.53,90.32,6Z"
            transform="translate(-1.02 -1.66)"/>
      <path class="cls-1"
            d="M102.46,10.2V5c0-.29,0-.71,0-.92-.1.28-.26.66-.38,1l-2.3,5.27L97.58,5c-.11-.26-.26-.63-.36-.91a8.35,8.35,0,0,1,0,.91V10.2H96.21V1.8h1l2.43,5.65.22.57c.06-.18.14-.39.21-.57l2.45-5.65h1v8.4Z"
            transform="translate(-1.02 -1.66)"/>
      <path class="cls-1"
            d="M105.85,1.8h5v1h-4V5.37h2.61v1h-2.61V9.2h4.21v1h-5.25Z"
            transform="translate(-1.02 -1.66)"/>
      <path class="cls-1" d="M115.88,10.2h-1V2.8H112.5v-1h5.72v1h-2.34Z"
            transform="translate(-1.02 -1.66)"/>
      <path class="cls-1" d="M120,1.8h5v1h-3.94V5.37h2.6v1h-2.6V9.2h4.21v1H120Z"
            transform="translate(-1.02 -1.66)"/>
      <path class="cls-1"
            d="M127.22,1.8h3.31c2,0,2.65,1.2,2.65,2.39a2.3,2.3,0,0,1-2,2.34L133,10.2h-1.18l-1.73-3.6h-1.85v3.6h-1.05Zm3.34,3.83a1.38,1.38,0,0,0,1.57-1.42,1.39,1.39,0,0,0-1.57-1.43h-2.29V5.63Z"
            transform="translate(-1.02 -1.66)"/>
    </g>
  </g>
</svg>
